# xmcd CD database file
#
# Track frame offsets:
#	150
#	22800
#	42470
#	64442
#	88827
#	107687
#	126520
#	218875
#	227297
#	234320
#	243230
#	250455
#	259950
#
# Disc length: 3564 seconds
#
# Revision: 0
# Processed by: cddbd v1.5.1PL0 Copyright (c) Steve Scherf et al.
# Submitted via: CDex 1.51
#
DISCID=b50dea0d
DTITLE=Various Artist - アンジェリーク 守護聖シングルズ〜ラブ・コレクション2〜
DYEAR=1999
DGENRE=Game
TTITLE0=森川智之/異次元飛行〜α to ω〜
TTITLE1=岩永哲哉/君の愛が聴こえる
TTITLE2=冬馬由美/眺めのいい場所
TTITLE3=立木文彦/約束
TTITLE4=真殿光昭/俺はツイてる！
TTITLE5=私市淳/一生に一度のお願い
TTITLE6=Sunshine Holiday ラストダンスのお誘い −「アンジェリーク〜天空の鎮魂歌」イベントより−
TTITLE7=ヴィクトール（立木文彦）
TTITLE8=セイラン（岩永哲哉）
TTITLE9=ティムカ（私市淳）
TTITLE10=エルンスト（森川智之）
TTITLE11=メル（冬馬由美）
TTITLE12=チャーリー（真殿光昭）
EXTD=YEAR: 1999
EXTT0=
EXTT1=
EXTT2=
EXTT3=
EXTT4=
EXTT5=
EXTT6=
EXTT7=
EXTT8=
EXTT9=
EXTT10=
EXTT11=
EXTT12=
PLAYORDER=
